
<svg width="18" height="18" viewBox="0 0 32 32" fill="none" xmlns="http://www.w3.org/2000/svg">
  <circle cx="16" cy="16" r="16" fill="#25D366"/>
  <path d="M23.195 18.653c-.356-.179-2.113-1.042-2.442-1.162-.328-.119-.567-.179-.805.179-.237.357-.923 1.161-1.132 1.4-.209.237-.418.268-.774.09-.356-.18-1.504-.553-2.864-1.763-1.058-.944-1.772-2.112-1.978-2.469-.208-.357-.023-.548.157-.726.162-.16.357-.417.535-.626.179-.208.238-.357.358-.596.119-.237.06-.446-.03-.625-.089-.179-.805-1.946-1.102-2.664-.29-.698-.584-.6-.804-.61-.208-.009-.446-.011-.685-.011-.237 0-.623.09-.948.446s-1.243 1.214-1.243 2.959c0 1.743 1.273 3.429 1.45 3.666.178.237 2.504 3.823 6.065 5.361.847.365 1.506.582 2.022.745.849.27 1.622.232 2.234.141.682-.102 2.113-.864 2.411-1.698.297-.833.297-1.547.208-1.697-.089-.149-.326-.237-.683-.417z" fill="white"/>
</svg>
